<?xml version="1.0" standalone="no"?>
<!DOCTYPE svg PUBLIC "-//W3C//DTD SVG 20010904//EN"
 "http://www.w3.org/TR/2001/REC-SVG-20010904/DTD/svg10.dtd">
<svg version="1.0" xmlns="http://www.w3.org/2000/svg"
 width="261.000000pt" height="227.000000pt" viewBox="0 0 261.000000 227.000000"
 preserveAspectRatio="xMidYMid meet">

<g transform="translate(0.000000,227.000000) scale(0.100000,-0.100000)"
fill="#000000" stroke="none">
<path d="M675 2248 c-3 -7 -6 -229 -7 -493 l-3 -480 -323 -3 c-178 -1 -322 -6
-320 -11 2 -4 63 -64 137 -133 158 -149 194 -192 217 -261 27 -83 73 -130 170
-177 47 -22 91 -40 98 -40 21 0 55 44 72 92 19 57 44 68 154 68 l76 0 70 -60
c62 -52 76 -70 112 -149 29 -62 65 -116 117 -177 66 -78 78 -97 106 -183 17
-53 36 -101 41 -107 11 -15 280 -124 305 -124 39 0 43 19 28 130 -21 157 -24
146 63 256 44 55 87 106 98 115 10 8 117 74 236 144 247 147 224 119 258 305
l21 115 -45 101 -46 101 0 159 c0 88 -4 164 -8 170 -10 17 -181 84 -211 84
-14 0 -64 -12 -110 -25 l-84 -25 -61 28 c-52 23 -74 27 -150 27 -80 -1 -92 2
-112 22 -18 18 -34 23 -74 23 -31 0 -66 8 -90 20 -22 11 -62 25 -89 31 -27 6
-61 21 -75 34 l-26 24 0 206 0 205 -270 0 c-207 0 -272 -3 -275 -12z"/>
</g>
</svg>
