<svg xmlns="http://www.w3.org/2000/svg" version="1.1" xmlns:xlink="http://www.w3.org/1999/xlink" xmlns:svgjs="http://svgjs.dev/svgjs" width="1500" height="227" viewBox="0 0 1500 227"><g transform="matrix(1,0,0,1,-0.9090909090909918,-0.4211113046443842)"><svg viewBox="0 0 396 60" data-background-color="#fafafa" preserveAspectRatio="xMidYMid meet" height="227" width="1500" xmlns="http://www.w3.org/2000/svg" xmlns:xlink="http://www.w3.org/1999/xlink"><g id="tight-bounds" transform="matrix(1,0,0,1,0.2400000000000091,0.11130695276943925)"><svg viewBox="0 0 395.52 59.7773860944611" height="59.7773860944611" width="395.52"><g><svg viewBox="0 0 485.3247593740079 73.35013532135291" height="59.7773860944611" width="395.52"><g transform="matrix(1,0,0,1,89.80475937400792,10.13739207407989)"><svg viewBox="0 0 395.52 53.07535117319313" height="53.07535117319313" width="395.52"><g id="textblocktransform"><svg viewBox="0 0 395.52 53.07535117319313" height="53.07535117319313" width="395.52" id="textblock"><g><svg viewBox="0 0 395.52 53.07535117319313" height="53.07535117319313" width="395.52"><g transform="matrix(1,0,0,1,0,0)"><svg width="395.52" viewBox="3.98 -41.19 311.08 41.75" height="53.07535117319313" data-palette-color="#756273"><path d="M29.22-4.49L29.22 0 3.98 0 3.98-35.16 29.22-35.16 29.22-30.66 13.67-30.66 13.67-19.8 25.68-19.8 25.68-15.33 13.67-15.33 13.67-4.49 29.22-4.49ZM42.94-32.62L42.94 0 34.69 0 34.69-41.19 37.86-41.19 42.94-32.62ZM58.49-35.01L58.49-35.01Q58.49-34.08 58.14-33.25 57.78-32.42 57.17-31.81 56.56-31.2 55.73-30.85 54.9-30.49 53.97-30.49L53.97-30.49Q53.05-30.49 52.23-30.85 51.41-31.2 50.8-31.81 50.19-32.42 49.84-33.25 49.48-34.08 49.48-35.01L49.48-35.01Q49.48-35.94 49.84-36.76 50.19-37.57 50.8-38.18 51.41-38.79 52.23-39.15 53.05-39.5 53.97-39.5L53.97-39.5Q54.9-39.5 55.73-39.15 56.56-38.79 57.17-38.18 57.78-37.57 58.14-36.76 58.49-35.94 58.49-35.01ZM58.12-28.17L58.12 0 49.85 0 49.85-28.17 58.12-28.17ZM75.65-24.93L75.65 0 67.38 0 67.38-24.93 62.25-24.93 62.25-28.2 67.38-28.2 67.38-38.57 75.65-38.57 75.65-28.2 84.2-28.2 84.2-24.93 75.65-24.93ZM93.57-13.38L93.57-13.38Q95.08-13.04 96.6-12.84 98.11-12.65 99.65-12.65L99.65-12.65Q101.26-12.65 102.64-12.95 104.02-13.26 105.03-13.98 106.04-14.7 106.63-15.89 107.22-17.09 107.22-18.87L107.22-18.87Q107.22-20.31 106.83-21.51 106.44-22.71 105.67-23.56 104.9-24.41 103.77-24.89 102.65-25.37 101.16-25.37L101.16-25.37Q99.77-25.37 98.66-24.85 97.55-24.34 96.71-23.47 95.86-22.61 95.27-21.46 94.67-20.31 94.28-19.07 93.89-17.82 93.72-16.55 93.54-15.28 93.54-14.16L93.54-14.16Q93.54-13.96 93.54-13.77 93.54-13.57 93.57-13.38ZM113.91-18.95L113.91-18.95Q113.91-17.21 113.34-15.86 112.78-14.5 111.82-13.48 110.85-12.45 109.58-11.74 108.32-11.04 106.87-10.58 105.43-10.13 103.91-9.94 102.38-9.74 100.94-9.74L100.94-9.74Q99.11-9.74 97.33-10 95.55-10.25 93.81-10.82L93.81-10.82Q94.08-9.2 94.67-7.75 95.25-6.3 96.23-5.21 97.21-4.13 98.64-3.49 100.06-2.86 102.02-2.86L102.02-2.86Q103.31-2.86 104.48-3.25 105.65-3.64 106.63-4.35 107.61-5.05 108.35-6.03 109.1-7.01 109.56-8.2L109.56-8.2 113.12-6.88Q112.32-4.96 110.92-3.55 109.51-2.15 107.74-1.23 105.97-0.32 103.98 0.12 101.99 0.56 100.04 0.56L100.04 0.56Q96.82 0.56 94.08-0.52 91.35-1.61 89.37-3.56 87.39-5.52 86.27-8.23 85.15-10.94 85.15-14.16L85.15-14.16Q85.15-17.38 86.27-20.09 87.39-22.8 89.37-24.76 91.35-26.71 94.08-27.8 96.82-28.88 100.04-28.88L100.04-28.88Q101.6-28.88 103.24-28.66 104.87-28.44 106.41-27.97 107.95-27.49 109.32-26.73 110.68-25.98 111.7-24.87 112.71-23.75 113.31-22.29 113.91-20.83 113.91-18.95ZM144.84-4.49L144.84 0 119.59 0 119.59-35.16 144.84-35.16 144.84-30.66 129.28-30.66 129.28-19.8 141.3-19.8 141.3-15.33 129.28-15.33 129.28-4.49 144.84-4.49ZM174.2-9.01L174.2-9.01Q174.2-7.15 173.67-5.71 173.13-4.27 172.2-3.21 171.27-2.15 170-1.43 168.74-0.71 167.28-0.27 165.83 0.17 164.24 0.37 162.66 0.56 161.09 0.56L161.09 0.56Q158.99 0.56 157.38 0.29 155.77 0.02 154.31-0.57 152.84-1.17 151.39-2.12 149.94-3.08 148.15-4.44L148.15-4.44 152.96-8.37Q153.62-7.13 154.71-6.12 155.8-5.1 156.97-4.37 158.14-3.64 159.24-3.25 160.34-2.86 161.02-2.86L161.02-2.86Q161.58-2.86 162.29-2.89 163-2.93 163.73-3.04 164.46-3.15 165.17-3.37 165.88-3.59 166.43-3.97 166.98-4.35 167.31-4.92 167.64-5.49 167.64-6.3L167.64-6.3Q167.64-7.13 167.21-7.75 166.78-8.37 166.1-8.84 165.41-9.3 164.54-9.62 163.66-9.94 162.77-10.18 161.87-10.42 161.04-10.61 160.21-10.79 159.6-10.96L159.6-10.96Q158.48-11.28 157.24-11.61 155.99-11.94 154.77-12.37 153.55-12.79 152.44-13.38 151.33-13.96 150.49-14.78 149.64-15.6 149.14-16.71 148.64-17.82 148.64-19.31L148.64-19.31Q148.64-22.05 149.73-23.89 150.82-25.73 152.6-26.84 154.38-27.95 156.65-28.42 158.92-28.88 161.26-28.88L161.26-28.88Q162.88-28.88 164.66-28.55 166.44-28.22 168.12-27.58 169.81-26.93 171.27-26 172.74-25.07 173.72-23.88L173.72-23.88 168.91-19.92Q168.37-21.39 167.5-22.44 166.64-23.49 165.62-24.16 164.61-24.83 163.55-25.15 162.49-25.46 161.58-25.46L161.58-25.46Q160.7-25.46 159.6-25.39 158.51-25.32 157.54-24.98 156.58-24.63 155.91-23.94 155.23-23.24 155.23-22.02L155.23-22.02Q155.23-21.14 155.64-20.52 156.04-19.9 156.7-19.45 157.36-18.99 158.2-18.69 159.04-18.38 159.92-18.15 160.8-17.92 161.63-17.75 162.46-17.58 163.12-17.38L163.12-17.38Q164.24-17.07 165.5-16.74 166.76-16.41 167.98-15.98 169.2-15.55 170.33-14.98 171.47-14.4 172.32-13.57 173.18-12.74 173.69-11.63 174.2-10.52 174.2-9.01ZM190.02-24.93L190.02 0 181.75 0 181.75-24.93 176.62-24.93 176.62-28.2 181.75-28.2 181.75-38.57 190.02-38.57 190.02-28.2 198.57-28.2 198.57-24.93 190.02-24.93ZM229.89-28.2L229.89 0 221.64 0 221.64-3.37Q220.17-1.37 218.11-0.4 216.04 0.56 213.58 0.56L213.58 0.56Q210.36 0.56 207.82-0.59 205.28-1.73 203.52-3.72 201.76-5.71 200.83-8.4 199.91-11.08 199.91-14.16L199.91-14.16Q199.91-17.24 200.83-19.92 201.76-22.61 203.52-24.6 205.28-26.59 207.82-27.73 210.36-28.88 213.58-28.88L213.58-28.88Q215.21-28.88 216.69-28.39 218.17-27.91 219.4-27.01 220.63-26.12 221.57-24.87 222.51-23.61 223.05-22.07L223.05-22.07 226.71-28.2 229.89-28.2ZM221.59-14.16L221.59-14.16Q221.59-15.26 221.48-16.48 221.37-17.7 221.1-18.9 220.83-20.09 220.35-21.18 219.88-22.27 219.13-23.11 218.39-23.95 217.34-24.44 216.29-24.93 214.9-24.93L214.9-24.93Q213.51-24.93 212.48-24.43 211.45-23.93 210.72-23.08 209.99-22.24 209.51-21.14 209.04-20.04 208.77-18.85 208.5-17.65 208.39-16.44 208.28-15.23 208.28-14.16L208.28-14.16Q208.28-13.09 208.39-11.87 208.5-10.64 208.77-9.45 209.04-8.25 209.51-7.15 209.99-6.05 210.72-5.21 211.45-4.37 212.48-3.87 213.51-3.37 214.9-3.37L214.9-3.37Q216.17-3.37 217.16-3.89 218.14-4.42 218.89-5.3 219.63-6.18 220.15-7.3 220.66-8.42 220.98-9.62 221.29-10.82 221.44-12 221.59-13.18 221.59-14.16ZM247.39-24.93L247.39 0 239.11 0 239.11-24.93 233.99-24.93 233.99-28.2 239.11-28.2 239.11-38.57 247.39-38.57 247.39-28.2 255.93-28.2 255.93-24.93 247.39-24.93ZM265.31-13.38L265.31-13.38Q266.82-13.04 268.33-12.84 269.85-12.65 271.39-12.65L271.39-12.65Q273-12.65 274.38-12.95 275.76-13.26 276.77-13.98 277.78-14.7 278.37-15.89 278.95-17.09 278.95-18.87L278.95-18.87Q278.95-20.31 278.56-21.51 278.17-22.71 277.4-23.56 276.64-24.41 275.51-24.89 274.39-25.37 272.9-25.37L272.9-25.37Q271.51-25.37 270.4-24.85 269.29-24.34 268.44-23.47 267.6-22.61 267-21.46 266.41-20.31 266.02-19.07 265.62-17.82 265.45-16.55 265.28-15.28 265.28-14.16L265.28-14.16Q265.28-13.96 265.28-13.77 265.28-13.57 265.31-13.38ZM285.64-18.95L285.64-18.95Q285.64-17.21 285.08-15.86 284.52-14.5 283.56-13.48 282.59-12.45 281.32-11.74 280.05-11.04 278.61-10.58 277.17-10.13 275.65-9.94 274.12-9.74 272.68-9.74L272.68-9.74Q270.85-9.74 269.07-10 267.28-10.25 265.55-10.82L265.55-10.82Q265.82-9.2 266.41-7.75 266.99-6.3 267.97-5.21 268.94-4.13 270.37-3.49 271.8-2.86 273.75-2.86L273.75-2.86Q275.05-2.86 276.22-3.25 277.39-3.64 278.37-4.35 279.35-5.05 280.09-6.03 280.83-7.01 281.3-8.2L281.3-8.2 284.86-6.88Q284.06-4.96 282.65-3.55 281.25-2.15 279.48-1.23 277.71-0.32 275.72 0.12 273.73 0.56 271.78 0.56L271.78 0.56Q268.55 0.56 265.82-0.52 263.09-1.61 261.11-3.56 259.13-5.52 258.01-8.23 256.88-10.94 256.88-14.16L256.88-14.16Q256.88-17.38 258.01-20.09 259.13-22.8 261.11-24.76 263.09-26.71 265.82-27.8 268.55-28.88 271.78-28.88L271.78-28.88Q273.34-28.88 274.98-28.66 276.61-28.44 278.15-27.97 279.69-27.49 281.05-26.73 282.42-25.98 283.43-24.87 284.45-23.75 285.05-22.29 285.64-20.83 285.64-18.95ZM315.06-9.01L315.06-9.01Q315.06-7.15 314.52-5.71 313.99-4.27 313.06-3.21 312.13-2.15 310.86-1.43 309.59-0.71 308.14-0.27 306.69 0.17 305.1 0.37 303.51 0.56 301.95 0.56L301.95 0.56Q299.85 0.56 298.24 0.29 296.63 0.02 295.16-0.57 293.7-1.17 292.25-2.12 290.79-3.08 289.01-4.44L289.01-4.44 293.82-8.37Q294.48-7.13 295.57-6.12 296.65-5.1 297.82-4.37 299-3.64 300.09-3.25 301.19-2.86 301.88-2.86L301.88-2.86Q302.44-2.86 303.15-2.89 303.85-2.93 304.59-3.04 305.32-3.15 306.03-3.37 306.74-3.59 307.28-3.97 307.83-4.35 308.16-4.92 308.49-5.49 308.49-6.3L308.49-6.3Q308.49-7.13 308.07-7.75 307.64-8.37 306.95-8.84 306.27-9.3 305.39-9.62 304.51-9.94 303.62-10.18 302.73-10.42 301.9-10.61 301.07-10.79 300.46-10.96L300.46-10.96Q299.34-11.28 298.09-11.61 296.85-11.94 295.63-12.37 294.41-12.79 293.3-13.38 292.18-13.96 291.34-14.78 290.5-15.6 290-16.71 289.5-17.82 289.5-19.31L289.5-19.31Q289.5-22.05 290.59-23.89 291.67-25.73 293.45-26.84 295.24-27.95 297.51-28.42 299.78-28.88 302.12-28.88L302.12-28.88Q303.73-28.88 305.51-28.55 307.3-28.22 308.98-27.58 310.67-26.93 312.13-26 313.6-25.07 314.57-23.88L314.57-23.88 309.76-19.92Q309.23-21.39 308.36-22.44 307.49-23.49 306.48-24.16 305.47-24.83 304.4-25.15 303.34-25.46 302.44-25.46L302.44-25.46Q301.56-25.46 300.46-25.39 299.36-25.32 298.4-24.98 297.43-24.63 296.76-23.94 296.09-23.24 296.09-22.02L296.09-22.02Q296.09-21.14 296.49-20.52 296.9-19.9 297.56-19.45 298.21-18.99 299.06-18.69 299.9-18.38 300.78-18.15 301.66-17.92 302.49-17.75 303.32-17.58 303.98-17.38L303.98-17.38Q305.1-17.07 306.36-16.74 307.61-16.41 308.83-15.98 310.06-15.55 311.19-14.98 312.33-14.4 313.18-13.57 314.04-12.74 314.55-11.63 315.06-10.52 315.06-9.01Z" opacity="1" transform="matrix(1,0,0,1,0,0)" fill="#756273" class="wordmark-text-0" data-fill-palette-color="primary" id="text-0"></path></svg></g></svg></g></svg></g></svg></g><g><svg viewBox="0 0 77.27494277044518 73.35013532135291" height="73.35013532135291" width="77.27494277044518"><g><svg xmlns="http://www.w3.org/2000/svg" xml:space="preserve" viewBox="-2.220446049250313e-16 2.54 99.99947439354528 94.92048412924959" id="icon-0" width="77.27494277044518" height="73.35013532135291" x="0" y="0" class="icon-icon-0" data-fill-palette-color="accent"><path d="M0 44.722c0-0.307 0.451-0.557 1.001-0.557h25.27c0.551 0 1.001-0.451 1.001-1.001V3.541c0-0.551 0.451-1.001 1.001-1.001h21.414c0.551 0 1.001 0.451 1.001 1.001V19.71c0 0.551 0.402 1.206 0.893 1.457l1.355 0.69a6.7 6.7 0 0 0 1.888 0.568l0.706 0.083c0.547 0.062 1.386 0.338 1.864 0.612l1.772 1.016c0.478 0.273 1.32 0.502 1.871 0.509l3.257 0.039c0.551 0.007 1.176 0.427 1.388 0.936l0.151 0.363a1.14 1.14 0 0 0 1.346 0.637l0.73-0.22a6.7 6.7 0 0 1 1.959-0.221l3.501 0.233c0.55 0.036 1.396 0.281 1.881 0.543l2.432 1.312c0.485 0.262 1.314 0.351 1.844 0.2l6.672-1.923c0.529-0.152 1.381-0.111 1.894 0.092l7.203 2.854c0.513 0.202 0.931 0.819 0.931 1.37v12.149c0 0.551 0.191 1.41 0.424 1.909l3.072 6.581c0.233 0.5 0.341 1.351 0.239 1.893l-1.916 10.233c-0.102 0.541-0.572 1.214-1.047 1.496L78.823 75.91c-0.475 0.281-1.139 0.867-1.477 1.302l-5.755 7.391c-0.338 0.434-0.561 1.237-0.492 1.783l1.148 9.367c0.067 0.546-0.276 1.203-0.764 1.46l-0.051 0.026c-0.487 0.256-1.304 0.296-1.814 0.089l-11.163-4.536c-0.511-0.207-1.075-0.803-1.255-1.323l-2.526-7.316c-0.18-0.521-0.626-1.283-0.991-1.694l-4.589-5.164a8.4 8.4 0 0 1-1.093-1.654l-2.844-6.015c-0.235-0.497-0.77-1.198-1.187-1.559l-4.362-3.751c-0.417-0.358-1.21-0.641-1.76-0.624l-4.431 0.125a19 19 0 0 0-1.99 0.189l-0.159 0.026c-0.544 0.089-1.147 0.584-1.34 1.1l-0.96 2.563c-0.193 0.515-0.677 1.249-1.074 1.631l-0.767 0.733c-0.397 0.382-1.131 0.503-1.63 0.27l-5.75-2.681c-0.499-0.232-1.207-0.76-1.573-1.171l-1.938-2.181c-0.366-0.411-0.796-1.179-0.957-1.706l-0.734-2.411c-0.161-0.527-0.567-1.314-0.905-1.749l-2.245-2.895a10.5 10.5 0 0 0-1.391-1.423L7.849 52.36a22 22 0 0 1-1.482-1.344l-3.708-3.747a11.6 11.6 0 0 0-1.542-1.261l-0.279-0.182c-0.461-0.3-0.838-0.797-0.838-1.104" fill="#2817e8" data-fill-palette-color="accent"></path></svg></g></svg></g></svg></g><defs></defs></svg><rect width="395.52" height="59.7773860944611" fill="none" stroke="none" visibility="hidden"></rect></g></svg></g></svg>